# xmcd CD database file
#
# Track frame offsets:
#	150
#	3685
#	16742
#	40215
#	55662
#	74155
#	88885
#	108255
#	122270
#	130570
#	141822
#	153682
#	165365
#	177455
#	189715
#	202237
#
# Disc length: 2913 seconds
#
# Revision: 1
# Processed by: cddbd v1.5.2PL0 Copyright (c) Steve Scherf et al.
# Submitted via: CDex 1.51
#
DISCID=de0b5f10
DTITLE=Little Joe Blue - The Very Best of Little Joe Blue
DYEAR=1996
DGENRE=Blues
TTITLE0=Introducing Little Joe Blue
TTITLE1=You Got to Come to Me
TTITLE2=Who's the Fool
TTITLE3=Lonesome Feeling
TTITLE4=Shopping Instead
TTITLE5=You're on My Mind
TTITLE6=Doin' Some Serious Living
TTITLE7=Don't Tax Me In
TTITLE8=Joe's Soul Thang
TTITLE9=Lonely
TTITLE10=Dirty Work Going On
TTITLE11=Between Nowhere and Don't Care
TTITLE12=Give Me an Hour in Your Garden, Pt. 1
TTITLE13=Give Me an Hour in Your Garden, Pt. 2
TTITLE14=Wasn't Born Yesterday
TTITLE15=We All Have the Blues
EXTD=YEAR: 1996
EXTT0=
EXTT1=
EXTT2=
EXTT3=
EXTT4=
EXTT5=
EXTT6=
EXTT7=
EXTT8=
EXTT9=
EXTT10=
EXTT11=
EXTT12=
EXTT13=
EXTT14=
EXTT15=
PLAYORDER=
